<svg width="32" height="32" viewBox="0 0 457 457" fill="none" xmlns="http://www.w3.org/2000/svg">
  <path d="M229.634 0.005C354.963 0.799 456.315 102.642 456.315 228.158C456.315 354.166 354.166 456.315 228.158 456.315C102.15 456.315 0 354.166 0 228.158C0 102.15 102.15 0 228.158 0C188.941 0 155.338 58.357 141.266 141.265C58.358 155.337 0 188.941 0 228.158C0 267.375 58.357 300.978 141.265 315.05C155.337 397.958 188.941 456.315 228.158 456.315C267.375 456.315 300.978 397.958 315.05 315.051C397.958 300.979 456.315 267.375 456.315 228.158C456.315 188.941 397.958 155.338 315.05 141.266C300.978 58.358 267.375 0 228.158 0L229.634 0.005ZM291.73 318.407C287.289 342.118 281.189 363.285 273.905 380.973C266.064 400.016 257.294 413.954 248.699 422.782C240.174 431.54 233.24 433.947 228.158 433.947C223.076 433.947 216.143 431.54 207.617 422.782C199.023 413.954 190.252 400.016 182.411 380.973C175.128 363.284 169.025 342.118 164.584 318.407C183.863 320.706 204.194 321.988 225.209 322.098L228.158 322.105C250.221 322.105 271.551 320.813 291.73 318.407ZM228.158 156.579C251.779 156.579 274.373 158.117 295.4 160.914C298.197 181.942 299.737 204.536 299.737 228.157C299.737 251.778 298.197 274.373 295.4 295.4C274.373 298.197 251.779 299.737 228.158 299.737C204.537 299.737 181.942 298.197 160.914 295.4C158.117 274.373 156.579 251.778 156.579 228.157C156.579 204.537 158.117 181.942 160.914 160.914C181.942 158.117 204.537 156.579 228.158 156.579ZM137.907 164.585C135.609 183.864 134.328 204.194 134.219 225.209L134.211 228.157C134.211 250.219 135.501 271.55 137.907 291.729C114.197 287.288 93.031 281.188 75.343 273.905C56.3 266.064 42.362 257.294 33.533 248.699C24.776 240.174 22.368 233.24 22.368 228.158C22.368 223.076 24.776 216.143 33.533 207.617C42.362 199.023 56.3 190.252 75.343 182.411C93.031 175.128 114.196 169.026 137.907 164.585ZM228.158 22.368C233.24 22.368 240.174 24.775 248.699 33.532C257.294 42.361 266.064 56.3 273.905 75.343C281.188 93.031 287.288 114.197 291.729 137.907C272.451 135.609 252.121 134.328 231.106 134.219L228.158 134.211C206.096 134.211 184.765 135.501 164.585 137.907C169.026 114.197 175.128 93.031 182.411 75.343C190.252 56.3 199.023 42.361 207.617 33.532C216.143 24.775 223.076 22.368 228.158 22.368ZM322.105 228.157C322.105 206.095 320.813 184.764 318.407 164.584C342.118 169.025 363.284 175.128 380.973 182.411C400.016 190.252 413.955 199.023 422.783 207.617C431.541 216.143 433.947 223.076 433.947 228.158C433.947 233.24 431.54 240.174 422.783 248.699C413.955 257.294 400.016 266.064 380.973 273.905C363.285 281.189 342.118 287.289 318.407 291.73C320.706 272.451 321.988 252.121 322.098 231.106L322.105 228.157Z" fill="#1a1a1a"/>
</svg>
